<?xml version="1.0" encoding="iso-8859-1"?>
<!-- Uploaded to: SVG Repo, www.svgrepo.com, Generator: SVG Repo Mixer Tools -->
<svg fill="#000000" height="800px" width="800px" version="1.1" id="Layer_1" xmlns="http://www.w3.org/2000/svg" xmlns:xlink="http://www.w3.org/1999/xlink" 
	 viewBox="0 0 330 330" xml:space="preserve">
<path id="XMLID_19_" d="M165,0C74.019,0,0,74.019,0,165s74.019,165,165,165s165-74.019,165-165S255.981,0,165,0z M253.105,175.606
	l-67.5,67.5c-2.869,2.87-6.706,4.394-10.609,4.394c-1.933,0-3.881-0.373-5.737-1.142c-5.604-2.322-9.26-7.791-9.26-13.858v-31.287
	l-41.894,41.893c-2.869,2.87-6.706,4.394-10.609,4.394c-1.933,0-3.881-0.373-5.737-1.142c-5.604-2.322-9.26-7.791-9.26-13.858v-135
	c0-6.067,3.655-11.536,9.26-13.858c5.604-2.322,12.058-1.039,16.347,3.252l41.894,41.893V97.5c0-6.067,3.655-11.536,9.26-13.858
	c5.605-2.322,12.057-1.039,16.347,3.252l67.5,67.5C258.963,160.251,258.963,169.749,253.105,175.606z"/>
</svg>